PathFileType	4	(X/Y/Z)	C:/Users/opensim2020/Desktop/walking_exp_matlab/subject01_walking14_straight_03.trc																																																																																																																												
DataRate	CameraRate	NumFrames	NumMarkers	Units	OrigDataRate	OrigDataStartFrame	OrigNumFrames																																																																																																																								
100	100	7	42	mm	100	1673	121																																																																																																																								
Frame#	Time	LFHD			RFHD			LBHD			RBHD			C7			T10			CLAV			STRN			RBAK			LSHO			LUPA			LELB			LFRM			LWRA			LWRB			LFIN			RSHO			RUPA			RELB			RFRM			RWRA			RWRB			RFIN			LASI			RASI			LPSI			RPSI			LTHI			LKNE			LTIB			LANK			LHEE			LTOE			RTHI			RKNE			RTIB			RANK			RHEE			RTOE			*39			*40			*41		
		X1	Y1	Z1	X2	Y2	Z2	X3	Y3	Z3	X4	Y4	Z4	X5	Y5	Z5	X6	Y6	Z6	X7	Y7	Z7	X8	Y8	Z8	X9	Y9	Z9	X10	Y10	Z10	X11	Y11	Z11	X12	Y12	Z12	X13	Y13	Z13	X14	Y14	Z14	X15	Y15	Z15	X16	Y16	Z16	X17	Y17	Z17	X18	Y18	Z18	X19	Y19	Z19	X20	Y20	Z20	X21	Y21	Z21	X22	Y22	Z22	X23	Y23	Z23	X24	Y24	Z24	X25	Y25	Z25	X26	Y26	Z26	X27	Y27	Z27	X28	Y28	Z28	X29	Y29	Z29	X30	Y30	Z30	X31	Y31	Z31	X32	Y32	Z32	X33	Y33	Z33	X34	Y34	Z34	X35	Y35	Z35	X36	Y36	Z36	X37	Y37	Z37	X38	Y38	Z38	X39	Y39	Z39	X40	Y40	Z40	X41	Y41	Z41	X42	Y42	Z42
																																																																																																																															
76	0.75	261.3996	1655.823	1362.75354	313.03857	1669.2804	1463.36438	154.33093	1618.552	1414.47925	206.31113	1631.08362	1521.60498	120.3811	1431.74634	1455.79126	72.78042	1138.39868	1475.93372	263.552	1356.78979	1446.95911	298.6178	1201.90796	1448.53699	61.76936	1245.34009	1542.0011	192.69269	1384.51733	1291.84143	156.41829	1201.34546	1211.13269	139.25681	1048.19885	1212.24292	194.82312	946.44507	1189.43823	298.70197	852.6684	1201.94092	243.44275	834.26056	1188.23889	301.50281	777.43268	1169.92322	208.96321	1404.29456	1599.00684	132.23863	1219.3667	1710.33142	126.36958	1093.09082	1720.91309	148.73216	974.4024	1755.16711	220.26772	851.84357	1735.83252	180.76891	856.92029	1777.63037	214.80388	778.13507	1780.40039	241.56801	936.276	1361.59473	253.45827	936.43774	1577.09351	58.84819	939.38672	1428.3009	71.71425	939.19965	1572.63074	218.57144	597.7735	1313.1095	215.17021	462.53217	1333.2854	149.05183	284.04227	1331.04004	98.14373	73.19444	1384.99072	52.0953	46.15503	1439.26135	240.78458	34.28561	1368.87781	298.3414	613.80505	1652.69153	346.76154	463.35846	1640.54773	219.76003	342.3483	1650.28833	92.3617	178.26987	1615.32593	31.1682	169.42403	1564.47278	179.09409	65.09928	1618.91443	294.60016	1701.43787	1442.19885	1973.22473	1023.49634	-3102.0144	2012.5658	1022.18134	-3140.84521
77	0.76	274.00415	1656.13892	1362.51196	326.07275	1669.37537	1462.82434	167.20682	1618.94421	1414.03662	219.334	1631.2821	1521.09473	132.843	1432.15869	1454.68835	84.80287	1138.91724	1474.24658	276.06259	1356.9657	1446.30188	310.87128	1202.08557	1447.85376	73.41004	1245.93726	1540.3363	205.79889	1385.26892	1291.03735	169.97427	1202.42627	1209.60046	153.73889	1048.88208	1209.99109	213.74667	949.29254	1187.30383	321.50464	860.14374	1199.79163	267.2131	839.3429	1186.06116	327.69089	785.23291	1167.66907	221.16859	1404.39307	1598.26074	143.09889	1219.68335	1709.06909	136.24437	1093.77686	1719.60815	155.38614	975.09625	1754.7052	223.42984	850.18549	1736.81934	184.05197	857.05328	1778.47522	215.37596	776.96613	1781.95142	252.43246	936.11292	1360.31665	265.24768	937.38098	1575.82568	70.42859	940.08276	1427.53967	83.47063	939.88837	1571.89209	224.2543	597.57324	1312.70056	218.28206	462.33725	1332.56311	150.6024	284.31787	1330.99609	98.55624	73.69766	1384.9856	52.36888	47.05759	1439.46973	240.70422	34.27817	1368.58484	314.51154	616.38043	1651.72717	365.68805	466.58749	1638.87439	244.95226	338.57922	1649.03149	125.66148	168.4382	1613.3468	65.16707	155.9319	1562.53711	219.92668	61.91116	1617.63049	307.69229	1701.57764	1441.73975	1973.18481	1023.40863	-3102.02734	2012.5343	1022.12323	-3140.677
78	0.77	286.85477	1656.3075	1362.04053	339.12369	1669.33728	1462.40759	180.06361	1619.26563	1413.71606	232.34883	1631.33826	1520.73938	145.54004	1432.45374	1453.82886	96.86276	1139.31799	1472.73218	288.66037	1356.96082	1445.71667	322.96136	1202.00586	1447.09033	85.73824	1246.10132	1538.75964	218.80135	1385.86353	1290.28064	183.43201	1203.40173	1208.22339	168.33922	1049.49231	1207.91858	233.71358	952.61536	1185.73108	343.92557	867.99988	1197.70959	290.67569	844.82422	1184.02429	353.71365	793.49945	1165.57788	233.40955	1404.32947	1597.61023	153.7644	1219.78015	1707.80408	146.01814	1094.35083	1718.40112	162.09189	975.87933	1754.40491	226.93048	848.91852	1737.97583	187.46313	857.43689	1779.45288	216.24466	776.13373	1783.46729	264.0043	935.9455	1358.89014	277.08459	938.11127	1574.58105	82.0241	940.65796	1426.81042	95.53757	940.38232	1571.1687	230.12222	597.33551	1312.34875	221.33441	462.15369	1331.80261	152.08327	284.78659	1330.95752	98.89455	74.56889	1385.19397	52.44765	48.36436	1439.53394	240.82077	34.23412	1368.59521	328.88437	617.51019	1649.65942	383.88913	469.28314	1637.18738	270.10413	334.33746	1647.8407	159.85904	158.3429	1611.78149	100.19859	141.6665	1560.99573	261.3237	59.22164	1616.71008	320.76425	1701.58423	1441.37219	1973.12781	1023.81799	-3101.95435	2012.60046	1022.07635	-3140.75635
79	0.78	299.8768	1656.34912	1361.80884	352.17322	1669.23816	1462.17334	192.91586	1619.38477	1413.41577	245.35001	1631.25439	1520.44055	158.20671	1432.55176	1453.00854	108.90952	1139.48145	1471.32275	301.25818	1356.83557	1445.1626	335.20215	1201.83105	1446.36768	98.01996	1246.15979	1537.21252	231.87152	1386.29163	1289.58789	196.88431	1204.25269	1206.90259	182.79062	1050.05847	1205.91003	251.71817	955.43652	1183.67371	365.88309	876.0625	1195.76978	313.31323	850.60187	1181.82532	378.91653	801.93152	1163.49854	245.75899	1404.10706	1596.96619	164.41295	1219.88147	1706.64392	155.69194	1094.95081	1717.41113	168.82965	976.66663	1754.17847	230.60858	847.93652	1739.21423	191.0325	857.85828	1780.29944	217.39191	775.53247	1784.95679	274.84125	935.36053	1358.02942	288.96255	938.58105	1573.39697	93.6626	941.04047	1426.22266	107.20213	940.66107	1570.5813	236.21071	597.10406	1312.02283	224.55098	462.0791	1331.30273	153.69847	285.26587	1330.91626	99.33397	75.20958	1385.30859	52.44548	49.83366	1439.77771	241.43579	33.87228	1368.9115	344.28867	619.46436	1648.86865	401.33057	471.54706	1635.53577	295.1701	329.80341	1646.60852	195.19534	148.07349	1610.61816	136.65195	127.47703	1559.93115	303.48093	56.9942	1616.49487	333.72733	1701.46204	1441.09473	1973.1814	1023.56537	-3101.97583	2012.54297	1021.91663	-3140.68408
80	0.79	312.71094	1656.45251	1361.58496	365.1846	1669.02283	1461.93042	205.89732	1619.43896	1413.27209	258.38492	1631.0802	1520.26392	170.89302	1432.57983	1452.32422	121.09061	1139.64612	1470.12024	313.89615	1356.57166	1444.66663	347.39569	1201.51538	1445.69946	110.28001	1246.09814	1535.85022	244.87009	1386.67053	1289.00867	210.26688	1204.89001	1205.67981	197.20959	1050.49951	1203.9364	269.8699	958.51154	1181.74573	387.27695	884.22516	1193.84399	336.71481	856.35938	1180.47302	403.81064	810.72589	1161.56567	258.15228	1403.77539	1596.4248	175.05818	1219.92017	1705.56458	165.36098	1095.45056	1716.54736	175.7466	977.46948	1754.10376	234.58527	847.1427	1740.50256	194.84399	858.35199	1781.14917	219.00363	775.18152	1786.40234	286.4455	934.95703	1356.9325	301.0791	938.82782	1572.29541	105.30411	941.20581	1425.73291	119.21002	940.62915	1570.05786	242.50925	596.78687	1311.64343	227.89592	461.80869	1330.68079	155.53043	285.78436	1330.90271	99.69683	76.16813	1385.5343	52.76739	51.03239	1439.94763	241.49455	33.85575	1368.89111	359.22729	621.04791	1648.18127	417.92316	473.21036	1633.74976	320.33298	325.34158	1645.56616	231.64267	138.05167	1610.12195	174.3642	113.14283	1559.08093	345.92719	55.23311	1616.50647	346.78549	1701.30688	1440.95618	1973.05273	1023.45306	-3101.90332	2012.50183	1022.11603	-3140.72754
81	0.8	325.52582	1656.36255	1361.44519	378.21341	1668.74817	1461.74609	218.75027	1619.4032	1413.17651	271.38437	1630.80713	1520.08191	183.63727	1432.57666	1451.84985	133.35031	1139.67737	1469.12476	326.52313	1356.20642	1444.23206	359.27399	1200.93555	1444.81396	122.69744	1245.81067	1534.61255	257.98511	1387.04211	1288.59851	223.58949	1205.39124	1204.63525	211.6859	1050.93945	1201.91943	287.86865	961.54303	1179.9209	408.16977	892.36646	1192.12122	358.86844	862.30872	1178.85876	428.04837	819.76886	1159.69885	270.64185	1403.30139	1595.99048	185.56517	1219.83777	1704.52051	174.97444	1095.8584	1715.83899	182.71733	978.172	1754.04919	239.04721	846.6076	1741.8916	198.93077	858.6922	1781.76538	221.0872	775.08899	1787.87366	297.91739	934.32123	1355.88367	313.25983	938.77545	1571.21265	116.97318	941.11395	1425.32373	131.22505	940.43671	1569.64856	248.92883	596.52374	1311.33728	231.71252	461.66519	1330.24414	157.59612	286.36929	1330.92346	100.15596	77.16069	1385.7301	53.14615	52.51353	1440.32739	241.56097	33.83918	1368.89026	373.7294	622.21417	1647.60583	433.91367	474.73154	1632.21863	345.28568	320.7395	1644.75989	268.54236	128.07758	1609.81885	213.07024	99.01134	1558.45374	388.58383	54.08064	1616.71387	359.80746	1701.05164	1440.88159	1973.10046	1023.43597	-3101.95728	2012.49976	1022.06567	-3140.75708
82	0.81	338.58447	1656.24487	1361.35486	391.24719	1668.41296	1461.69641	231.79187	1619.23584	1413.13354	284.42105	1630.44043	1520.05432	196.38074	1432.46057	1451.40051	145.62709	1139.71594	1468.34827	339.21136	1355.78174	1443.81946	371.57379	1200.3844	1444.18457	135.1403	1245.58374	1533.6344	270.8056	1387.07068	1288.1748	236.89752	1205.77966	1203.63782	226.26544	1051.31799	1199.91382	305.64081	964.53174	1178.16199	428.55151	900.48895	1190.51453	380.6131	868.2558	1177.35254	451.48688	828.88721	1157.92822	283.16406	1402.69104	1595.58032	196.17894	1219.74438	1703.573	184.58226	1096.2019	1715.19653	189.86633	978.81232	1754.11121	242.91229	845.58978	1742.6532	203.32288	859.28766	1782.69641	223.46982	774.94128	1789.13892	309.57547	933.70624	1354.88379	325.61969	938.54321	1570.22815	128.67216	940.85693	1425.0636	143.35416	940.26477	1569.3241	255.51958	596.41956	1311.09888	235.66731	461.73523	1329.91443	159.93462	287.1676	1330.92932	100.56737	78.70795	1386.18286	53.80327	54.3653	1441.07385	241.6492	33.79051	1368.94006	387.80667	622.99097	1647.16699	449.12888	475.80057	1630.79163	370.34534	316.28195	1644.3595	306.51303	118.83495	1610.04456	253.03798	86.26352	1559.07922	431.38208	53.70835	1617.02002	372.86145	1700.7533	1440.88074	1973.15564	1023.4704	-3101.92993	2012.4624	1022.11859	-3140.81055
